Coordinates
version=1
nRows=7
nColumns=40
inDegrees=yes

Units are S.I. units (second, meters, Newtons, ...)
Angles are in degrees.

endheader
time	pelvis_tilt	pelvis_list	pelvis_rotation	pelvis_tx	pelvis_ty	pelvis_tz	hip_flexion_r	hip_adduction_r	hip_rotation_r	knee_angle_r	knee_angle_r_beta	ankle_angle_r	subtalar_angle_r	mtp_angle_r	hip_flexion_l	hip_adduction_l	hip_rotation_l	knee_angle_l	knee_angle_l_beta	ankle_angle_l	subtalar_angle_l	mtp_angle_l	lumbar_extension	lumbar_bending	lumbar_rotation	arm_flex_r	arm_add_r	arm_rot_r	elbow_flex_r	pro_sup_r	wrist_flex_r	wrist_dev_r	arm_flex_l	arm_add_l	arm_rot_l	elbow_flex_l	pro_sup_l	wrist_flex_l	wrist_dev_l
     21.52000000	     -5.07030073	     -4.25988333	     -2.22756856	      0.99710785	      0.93209075	      0.44103064	     37.06590755	     -4.75562915	     -4.17229005	     73.74214090	     73.74214090	     -9.52943503	    -16.88953605	      0.34942185	     13.82789095	     -5.10087329	     -6.05336355	     20.86578383	     20.86578383	     13.97321109	    -12.46431664	      0.84667832	    -10.53786006	      7.23908751	      2.28468835	     -0.75360885	    -13.11726136	    -15.62206943	     58.51882855	     45.10913637	      0.00000000	      0.00000000	      5.88154476	    -13.47314595	     -0.47505855	     57.42689416	     46.16488504	      0.00000000	      0.00000000
     21.53207143	     -5.08075682	     -4.16706977	     -2.64469642	      0.99628235	      0.93275817	      0.44119680	     38.39407207	     -4.73183992	     -4.32774161	     72.77987312	     72.77987312	     -8.59234491	    -17.23376216	      0.11071726	     12.79037300	     -4.95328387	     -6.34904201	     19.92753749	     19.92753749	     14.08006133	    -12.42941665	      1.00846284	    -10.84020364	      7.21958750	      3.02923262	     -2.46136485	    -13.23514739	    -15.39143833	     56.04943261	     45.18559624	      0.00000000	      0.00000000	      7.32773012	    -13.42682988	     -0.75520886	     59.07041847	     46.23069880	      0.00000000	      0.00000000
     21.54414286	     -5.06952179	     -4.14734360	     -3.01116764	      0.99551765	      0.93334349	      0.44140116	     39.56025895	     -4.64692760	     -4.60713683	     71.61766446	     71.61766446	     -7.61190215	    -17.46869781	      0.26244649	     11.81767005	     -4.89247914	     -6.66659169	     19.12882550	     19.12882550	     13.98195263	    -12.49380167	      0.73021933	    -11.00160670	      7.19756969	      2.47100228	     -1.46850668	    -12.95166611	    -14.85450356	     48.72377393	     45.45323369	      0.00000000	      0.00000000	      7.54000120	    -14.22313443	     -1.02641897	     62.11440664	     46.35275119	      0.00000000	      0.00000000
     21.55621429	     -5.05254640	     -4.16462507	     -3.37272172	      0.99477467	      0.93386690	      0.44168759	     40.55575389	     -4.47757870	     -4.88443464	     70.15849358	     70.15849358	     -6.68814952	    -17.63863366	      0.41391069	     10.82096201	     -4.87874264	     -7.02804069	     18.30043439	     18.30043439	     14.11564310	    -12.26649094	      0.81400860	    -11.29824828	      7.29424904	      3.11506321	     -2.97199210	    -13.05108294	    -14.50322075	     46.48789746	     45.51541943	      0.00000000	      0.00000000	      8.89920905	    -14.09673483	     -1.58699665	     63.81612140	     46.44203456	      0.00000000	      0.00000000
     21.56828571	     -5.07596533	     -4.18673576	     -3.68600482	      0.99396225	      0.93415344	      0.44211608	     41.49353584	     -4.24676633	     -5.12200152	     68.49035331	     68.49035331	     -5.40842227	    -17.56525264	      1.77189299	     10.00081115	     -4.90270782	     -7.41630540	     17.67579091	     17.67579091	     14.13763047	    -12.04869195	      0.49765667	    -11.45066838	      7.30446523	      2.24922928	     -1.43093489	    -12.85694550	    -13.22330359	     38.79100206	     45.76811985	      0.00000000	      0.00000000	      8.84961369	    -14.79354742	     -2.80933768	     66.98679567	     46.64469973	      0.00000000	      0.00000000
     21.58035714	     -5.08112578	     -4.24702970	     -3.96644940	      0.99324684	      0.93433317	      0.44259708	     42.16608590	     -4.00558619	     -5.42384583	     66.36503600	     66.36503600	     -4.56037518	    -17.51646041	      1.90877754	      9.14974560	     -4.94216743	     -7.69583201	     17.03031421	     17.03031421	     14.29834429	    -11.85541524	      0.56767064	    -11.72987917	      7.44991379	      2.75667890	     -2.80877125	    -12.86993561	    -12.91340409	     37.03391591	     45.81345799	      0.00000000	      0.00000000	     10.16183236	    -14.66496005	     -3.39894658	     68.59209530	     46.73259111	      0.00000000	      0.00000000
     21.59242857	     -5.24214825	     -4.21743679	     -4.15536912	      0.99241228	      0.93397638	      0.44313636	     42.86472962	     -3.84558330	     -5.67021643	     63.92214715	     63.92214715	     -3.74151707	    -17.36538993	      1.97126908	      8.70943629	     -4.92187830	     -7.88809006	     16.77930110	     16.77930110	     14.47581244	    -11.81257745	      0.53405900	    -11.74415913	      7.53125671	      2.51991200	     -3.89371984	    -12.62561129	    -12.77127497	     36.09248813	     45.83559990	      0.00000000	      0.00000000	     11.27405556	    -15.19570463	     -3.77918805	     69.41400170	     46.78357393	      0.00000000	      0.00000000
